<?xml version="1.0" standalone="no"?>
<!DOCTYPE svg PUBLIC "-//W3C//DTD SVG 1.1//EN" "http://www.w3.org/Graphics/SVG/1.1/DTD/svg11.dtd" >
<svg xmlns="http://www.w3.org/2000/svg" xmlns:xlink="http://www.w3.org/1999/xlink" version="1.1" viewBox="-10 0 1034 1024">
  <g transform="matrix(1 0 0 -1 0 880)">
   <path fill="currentColor"
d="M44 576q149 -34 187 -133l7 7q34 34 82 34t82 -34q8 -8 14 -17q6 9 14 17q34 34 82 34t82 -34q8 -8 14 -17q6 9 14 17q34 34 82 34t82 -34l7 -7q38 99 187 133v-40q-160 -40 -160 -168t160 -168v-40q-149 34 -187 133l-7 -7q-34 -34 -82 -34t-81 34q-9 8 -15 17
q-6 -9 -14 -17q-34 -34 -82 -34t-81 34q-9 8 -15 17q-6 -9 -14 -17q-34 -34 -82 -34t-81 34l-8 8q-37 -100 -187 -134v40q160 40 160 168t-160 168v40zM458 422q-22 -22 -22 -54t22 -54t54 -22t54 22t22 54t-22 54t-54 22t-54 -22zM266 422q-22 -22 -22 -54t22 -54t54 -22
t54 22t22 54t-22 54t-54 22t-54 -22zM650 422q-22 -22 -22 -54t22 -54t54 -22t54 22t22 54t-22 54t-54 22t-54 -22z" />
  </g>

</svg>
