<?xml version="1.0" standalone="no"?>
<!DOCTYPE svg PUBLIC "-//W3C//DTD SVG 1.1//EN" "http://www.w3.org/Graphics/SVG/1.1/DTD/svg11.dtd" >
<svg xmlns="http://www.w3.org/2000/svg" xmlns:xlink="http://www.w3.org/1999/xlink" version="1.1" viewBox="-10 0 1034 1024">
  <g transform="matrix(1 0 0 -1 0 880)">
   <path fill="currentColor"
d="M212 812v40h608v-40h-288v-273q126 -6 216 -95q96 -97 96 -236t-96.5 -235.5t-235.5 -96.5h-304v40h247l-205 118l18 38l265 -155q108 6 186 84q85 85 85 207t-85 207q-78 78 -187 84v-305q-90 0 -141 52q-51 50 -51 122t50 122q43 43 102 49v273h-280zM419 462
q-39 -39 -39 -94t39 -93q31 -32 73 -38v262q-42 -6 -73 -37z" />
  </g>

</svg>
