<?xml version="1.0" standalone="no"?>
<!DOCTYPE svg PUBLIC "-//W3C//DTD SVG 1.1//EN" "http://www.w3.org/Graphics/SVG/1.1/DTD/svg11.dtd" >
<svg xmlns="http://www.w3.org/2000/svg" xmlns:xlink="http://www.w3.org/1999/xlink" version="1.1" viewBox="-10 0 1034 1024">
  <g transform="matrix(1 0 0 -1 0 880)">
   <path fill="currentColor"
d="M308 832q10 -16 23 -43.5t13 -68.5q0 -46 -19.5 -82.5t-48.5 -69.5q-12 -15 -20 -36q-8 -22 -8 -52q0 -29 7.5 -49.5t20.5 -38.5q29 -33 49 -69q19 -36 19 -83q0 -46 -19.5 -82.5t-48.5 -69.5q-13 -18 -20 -38q-8 -21 -8 -50q0 -30 8 -51.5t20 -36.5l-32 -24
q-10 16 -23 43.5t-13 68.5q0 46 19.5 82.5t48.5 69.5q13 18 21 39q7 20 7 49q0 30 -8 51.5t-20 36.5q-29 33 -48 70q-20 36 -20 82q0 47 19.5 83t48.5 69q13 18 21 39q7 20 7 49q0 30 -8 51.5t-20 36.5zM544 832q10 -16 23 -43.5t13 -68.5q0 -46 -19.5 -82.5t-48.5 -69.5
q-12 -15 -20 -36q-8 -22 -8 -52q0 -29 7.5 -49.5t20.5 -38.5q29 -33 49 -69q19 -36 19 -83q0 -46 -19.5 -82.5t-48.5 -69.5q-13 -18 -20 -38q-8 -21 -8 -50q0 -30 8 -51.5t20 -36.5l-32 -24q-10 16 -23 43.5t-13 68.5q0 46 19.5 82.5t48.5 69.5q13 18 21 39q7 20 7 49
q0 30 -8 51.5t-20 36.5q-29 33 -48 70q-20 36 -20 82q0 47 19.5 83t48.5 69q13 18 21 39q7 20 7 49q0 30 -8 51.5t-20 36.5zM780 832q10 -16 23 -43.5t13 -68.5q0 -46 -19.5 -82.5t-48.5 -69.5q-12 -15 -20 -36q-8 -22 -8 -52q0 -29 7.5 -49.5t20.5 -38.5q29 -33 49 -69
q19 -36 19 -83q0 -46 -19.5 -82.5t-48.5 -69.5q-13 -18 -20 -38q-8 -21 -8 -50q0 -30 8 -51.5t20 -36.5l-32 -24q-10 16 -23 43.5t-13 68.5q0 46 19.5 82.5t48.5 69.5q13 18 21 39q7 20 7 49q0 30 -8 51.5t-20 36.5q-29 33 -48 70q-20 36 -20 82q0 47 19.5 83t48.5 69
q13 18 21 39q7 20 7 49q0 30 -8 51.5t-20 36.5z" />
  </g>

</svg>
