<?xml version="1.0" standalone="no"?>
<!DOCTYPE svg PUBLIC "-//W3C//DTD SVG 1.1//EN" "http://www.w3.org/Graphics/SVG/1.1/DTD/svg11.dtd" >
<svg xmlns="http://www.w3.org/2000/svg" xmlns:xlink="http://www.w3.org/1999/xlink" version="1.1" viewBox="-10 0 1034 1024">
  <g transform="matrix(1 0 0 -1 0 880)">
   <path fill="currentColor"
d="M376 720q0 57 39.5 96.5t96.5 39.5t96.5 -39.5t39.5 -96.5t-39 -96q-11 -11 -22 -18q21 -46 21 -114q0 -79 -32 -131q-3 -6 -7 -12q27 -16 57 -30q63 -31 122 -31t117 23.5t99 56.5l20 -36q-32 -30 -96 -57t-140 -27t-139 32q-36 18 -62 35q-18 -25 -35 -47
q-20 -23 -42 -60q-5 -8 -8 -17q30 -18 50 -35q50 -38 114 -69q63 -31 122 -31t117 23.5t99 56.5l20 -36q-32 -30 -96 -57t-140 -27t-139 32t-97 60q-28 22 -61 41q-3 -19 -3 -41q0 -56 23 -105.5t57 -90.5l-37 -20q-26 30 -54.5 86.5t-28.5 129.5q0 33 6 61q-8 4 -15 8
q-64 31 -123 31t-117 -23.5t-99 -56.5l-20 36q32 30 96 57t140 27t139 -32q5 -3 11 -5q6 15 14 29q32 52 72 96q1 1 2 3q-1 0 -2 1q-50 38 -113 69q-64 31 -123 31t-117 -23.5t-99 -56.5l-20 36q32 30 96 57t140 27t139 -32t97 -60l22 -16q6 9 12 20q22 38 22 100
q0 48 -18 97q-18 -5 -38 -5q-57 0 -96.5 39.5t-39.5 96.5zM416 720q0 -40 28 -68t68 -28t68 28t28 68t-28 68t-68 28t-68 -28t-28 -68z" />
  </g>

</svg>
