<?xml version="1.0" standalone="no"?>
<!DOCTYPE svg PUBLIC "-//W3C//DTD SVG 1.1//EN" "http://www.w3.org/Graphics/SVG/1.1/DTD/svg11.dtd" >
<svg xmlns="http://www.w3.org/2000/svg" xmlns:xlink="http://www.w3.org/1999/xlink" version="1.1" viewBox="-10 0 1034 1024">
  <g transform="matrix(1 0 0 -1 0 880)">
   <path fill="currentColor"
d="M480 123q-12 -30 -12 -67q0 -35 15 -71t45 -73l-37 -20q-22 26 -42.5 69t-20.5 95q0 54 22 101q13 27 32 52q-19 14 -37 20q-33 11 -57 11q-23 0 -49.5 -11t-46.5 -25l-20 36q13 10 44.5 25t71.5 15q36 0 64 -9q26 -9 56 -32q24 28 36 58t12 67q0 35 -15 71t-36 56
q-28 -21 -53 -29q-28 -10 -64 -10q-40 0 -71.5 15t-44.5 25l20 36q20 -14 46.5 -25t49.5 -11q24 0 57 11q17 6 35 18q-18 24 -30 50q-22 47 -22 101q0 52 20.5 95t42.5 69l37 -20q-30 -37 -45 -73t-15 -71q0 -37 12 -67t32 -53q33 21 60 31q28 9 64 9q40 0 71.5 -15
t44.5 -25l-20 -36q-20 14 -46.5 25t-49.5 11q-24 0 -56 -11q-20 -7 -41 -22q23 -32 37 -60q20 -43 20 -95q0 -54 -22 -101q-13 -27 -32 -52q19 -14 38 -20q32 -11 56 -11q23 0 49.5 11t46.5 25l20 -36q-13 -10 -44.5 -25t-71.5 -15q-36 0 -64 10q-26 8 -56 31
q-24 -28 -36 -58z" />
  </g>

</svg>
