<?xml version="1.0" standalone="no"?>
<!DOCTYPE svg PUBLIC "-//W3C//DTD SVG 1.1//EN" "http://www.w3.org/Graphics/SVG/1.1/DTD/svg11.dtd" >
<svg xmlns="http://www.w3.org/2000/svg" xmlns:xlink="http://www.w3.org/1999/xlink" version="1.1" viewBox="-10 0 1034 1024">
  <g transform="matrix(1 0 0 -1 0 880)">
   <path fill="currentColor"
d="M68 604q0 -89 61.5 -150.5t150.5 -61.5t150.5 61.5t61.5 150.5t-61.5 150.5t-150.5 61.5t-150.5 -61.5t-61.5 -150.5zM28 604q0 105 73.5 178.5t178.5 73.5t178.5 -73.5t73.5 -178.5v-476q0 -89 62 -151q61 -61 150 -61t150.5 61.5t61.5 150.5h40q0 -105 -73.5 -178.5
t-178.5 -73.5t-178.5 73.5t-73.5 178.5v338q-14 -21 -33 -40q-74 -74 -179 -74t-178.5 73.5t-73.5 178.5z" />
  </g>

</svg>
