<?xml version="1.0" standalone="no"?>
<!DOCTYPE svg PUBLIC "-//W3C//DTD SVG 1.1//EN" "http://www.w3.org/Graphics/SVG/1.1/DTD/svg11.dtd" >
<svg xmlns="http://www.w3.org/2000/svg" xmlns:xlink="http://www.w3.org/1999/xlink" version="1.1" viewBox="-10 0 1034 1024">
  <g transform="matrix(1 0 0 -1 0 880)">
   <path fill="currentColor"
d="M296 132q0 -90 63 -153t153 -63t153 63t63 153t-63 153t-153 63t-153 -63t-63 -153zM256 132q0 107 75 182q19 19 41 34v488h40v-467q46 19 100 19t100 -19v467h40v-488q22 -15 42 -34q74 -75 74 -182t-74.5 -181.5t-181.5 -74.5t-181.5 74.5t-74.5 181.5z" />
  </g>

</svg>
