<?xml version="1.0" standalone="no"?>
<!DOCTYPE svg PUBLIC "-//W3C//DTD SVG 1.1//EN" "http://www.w3.org/Graphics/SVG/1.1/DTD/svg11.dtd" >
<svg xmlns="http://www.w3.org/2000/svg" xmlns:xlink="http://www.w3.org/1999/xlink" version="1.1" viewBox="-10 0 1034 1024">
  <g transform="matrix(1 0 0 -1 0 880)">
   <path fill="currentColor"
d="M195 235q-136 82 -159 133q23 51 159 133q149 83 317 83t317 -83q136 -82 159 -133q-23 -51 -159 -133q-149 -83 -317 -83t-317 83zM216 268q135 -71 276 -76v352q-141 -5 -276 -76q-110 -68 -132 -100q22 -32 132 -100zM808 268q110 68 132 100q-22 32 -132 100
q-135 71 -276 76v-352q141 5 276 76z" />
  </g>

</svg>
