<?xml version="1.0" standalone="no"?>
<!DOCTYPE svg PUBLIC "-//W3C//DTD SVG 1.1//EN" "http://www.w3.org/Graphics/SVG/1.1/DTD/svg11.dtd" >
<svg xmlns="http://www.w3.org/2000/svg" xmlns:xlink="http://www.w3.org/1999/xlink" version="1.1" viewBox="-10 0 1034 1024">
  <g transform="matrix(1 0 0 -1 0 880)">
   <path fill="currentColor"
d="M253 42q-117 98 -117 262q0 96 34.5 200t41.5 132q15 53 -4.5 80.5t-55.5 27.5q-50 0 -68 -68l-36 12q27 97 104 96q60 0 90 -46q10 -16 15 -34h510q5 18 15 34q30 46 90 46q77 1 104 -96l-36 -12q-18 68 -68 68q-36 0 -55.5 -27.5t-4.5 -80.5q7 -28 41.5 -132t34.5 -200
q0 -164 -117 -262t-259 -98t-259 98zM252 628q-15 -47 -45.5 -145.5t-30.5 -178.5q0 -85 32 -148h116v508h-65q-1 -17 -7 -36zM281 67q105 -83 231 -83t231 83q28 22 48 49h-558q20 -27 48 -49zM848 304q0 80 -30.5 178.5t-45.5 145.5q-6 19 -7 36h-65v-508h116
q32 63 32 148zM532 664v-508h128v508h-128zM364 664v-508h128v508h-128z" />
  </g>

</svg>
