<?xml version="1.0" standalone="no"?>
<!DOCTYPE svg PUBLIC "-//W3C//DTD SVG 1.1//EN" "http://www.w3.org/Graphics/SVG/1.1/DTD/svg11.dtd" >
<svg xmlns="http://www.w3.org/2000/svg" xmlns:xlink="http://www.w3.org/1999/xlink" version="1.1" viewBox="-10 0 1034 1024">
  <g transform="matrix(1 0 0 -1 0 880)">
   <path fill="currentColor"
d="M741 736v-40h-209v-201q91 -6 156 -71q17 -17 30 -36q14 26 20 100q6 88 38 140q63 98 200 108v-40q-123 -11 -164 -92q-29 -40 -38 -140q-8 -87 -31 -123q13 -33 16 -72q85 17 129 59q63 53 64 148h40q-7 -109 -82 -184q-70 -55 -151 -64q-6 -91 -71 -156
q-72 -72 -176 -72t-176 72q-65 65 -71 156q-81 9 -151 64q-75 75 -82 184h40q1 -95 64 -148q44 -42 129 -59q3 39 16 72q-23 36 -31 123q-9 100 -38 140q-41 81 -164 92v40q137 -10 200 -108q32 -52 39 -140q5 -74 19 -100q13 19 30 36q65 65 156 71v201h-211v40h460z
M304 248q0 -87 60.5 -147.5t147.5 -60.5t147.5 60.5t60.5 147.5t-60.5 147.5t-147.5 60.5t-147.5 -60.5t-60.5 -147.5z" />
  </g>

</svg>
