<?xml version="1.0" standalone="no"?>
<!DOCTYPE svg PUBLIC "-//W3C//DTD SVG 1.1//EN" "http://www.w3.org/Graphics/SVG/1.1/DTD/svg11.dtd" >
<svg xmlns="http://www.w3.org/2000/svg" xmlns:xlink="http://www.w3.org/1999/xlink" version="1.1" viewBox="-10 0 1034 1024">
  <g transform="matrix(1 0 0 -1 0 880)">
   <path fill="currentColor"
d="M856 344h-168l44 -76q36 -56 36 -132q0 -107 -74.5 -181.5t-181.5 -74.5t-181.5 74.5t-74.5 181.5q0 74 36 132l44 76h-168v40h191l129 225l-124 215h48l100 -174l100 174h48l-124 -215l129 -225h191v-40zM296 136q0 -90 63 -153t153 -63t153 63t63 153q0 61 -28 108
l-58 100h-260l-58 -100q-28 -51 -28 -108zM619 384l-107 185l-107 -185h214z" />
  </g>

</svg>
